<?xml version="1.0" standalone="no"?>
<!DOCTYPE svg PUBLIC "-//W3C//DTD SVG 20010904//EN"
 "http://www.w3.org/TR/2001/REC-SVG-20010904/DTD/svg10.dtd">
<svg version="1.0" xmlns="http://www.w3.org/2000/svg"
 width="500.000000pt" height="500.000000pt" viewBox="0 0 500.000000 500.000000"
 preserveAspectRatio="xMidYMid meet">
<metadata>
Created by potrace 1.14, written by Peter Selinger 2001-2017
</metadata>
<g transform="translate(0.000000,500.000000) scale(0.100000,-0.100000)"
fill="#000000" stroke="none">
<path d="M2455 4513 c-22 -2 -283 -4 -580 -6 -297 -2 -558 -7 -580 -10 -82
-13 -115 -20 -163 -31 -123 -31 -259 -107 -365 -206 -94 -86 -199 -258 -222
-360 -1 -3 -7 -24 -14 -48 -17 -61 -28 -143 -37 -272 -5 -87 -5 -2076 1 -2165
4 -62 15 -168 20 -195 2 -8 6 -30 9 -49 10 -54 45 -151 74 -206 146 -279 415
-446 755 -470 72 -5 2213 -6 2272 -1 185 16 280 39 400 98 180 90 306 219 395
407 16 34 27 61 23 61 -3 0 -1 6 5 13 15 17 50 195 57 287 6 85 7 2173 1 2264
-11 154 -40 274 -92 385 -120 256 -346 425 -634 476 -19 4 -48 9 -65 12 -39 6
-1171 21 -1260 16z"/>
</g>
</svg>
